HIERARCHY
ROOT Hips
{
	OFFSET 0.000000 0.000000 0.000000
	CHANNELS 6 Xposition Yposition Zposition Zrotation Yrotation Xrotation 
	JOINT LeftUpLeg_virtual
	{
		OFFSET 0.000000 0.000000 0.000000
		CHANNELS 3 Zrotation Yrotation Xrotation
		JOINT LeftUpLeg
		{
			OFFSET 8.479694 -4.795517 -0.379053
			CHANNELS 3 Zrotation Yrotation Xrotation
			JOINT LeftLeg
			{
				OFFSET 0.485052 -32.551468 0.112863
				CHANNELS 3 Zrotation Yrotation Xrotation
				JOINT LeftFoot
				{
					OFFSET 0.438033 -32.635670 -3.012641
					CHANNELS 3 Zrotation Yrotation Xrotation
					JOINT LeftToeBase
					{
						OFFSET 0.970169 -13.225353 11.864223
						CHANNELS 3 Zrotation Yrotation Xrotation
						End Site
						{
							OFFSET 0.000000 0.000000 0.000000
						}
					}
				}
			}
		}
	}
	JOINT RightUpLeg_virtual
	{
		OFFSET 0.000000 0.000000 0.000000
		CHANNELS 3 Zrotation Yrotation Xrotation
		JOINT RightUpLeg
		{
			OFFSET -8.479694 -4.795517 -0.379053
			CHANNELS 3 Zrotation Yrotation Xrotation
			JOINT RightLeg
			{
				OFFSET -0.484100 -32.551483 0.112903
				CHANNELS 3 Zrotation Yrotation Xrotation
				JOINT RightFoot
				{
					OFFSET -0.438985 -32.635651 -3.012681
					CHANNELS 3 Zrotation Yrotation Xrotation
					JOINT RightToeBase
					{
						OFFSET -0.970169 -13.225354 11.864223
						CHANNELS 3 Zrotation Yrotation Xrotation
						End Site
						{
							OFFSET 0.000000 0.000000 0.000000
						}
					}
				}
			}
		}
	}
	JOINT Spine_virtual
	{
		OFFSET 0.000000 0.000000 0.000000
		CHANNELS 3 Zrotation Yrotation Xrotation
		JOINT Spine
		{
			OFFSET 0.000000 7.722015 1.166203
			CHANNELS 3 Zrotation Yrotation Xrotation
			JOINT Spine1
			{
				OFFSET 0.000000 12.024086 0.248766
				CHANNELS 3 Zrotation Yrotation Xrotation
				JOINT Spine2
				{
					OFFSET -0.000000 11.503036 -0.491240
					CHANNELS 3 Zrotation Yrotation Xrotation
					JOINT Neck_virtual
					{
						OFFSET 0.000000 0.000000 0.000000
						CHANNELS 3 Zrotation Yrotation Xrotation
						JOINT Neck
						{
							OFFSET 0.000000 18.430687 -3.123054
							CHANNELS 3 Zrotation Yrotation Xrotation
							JOINT Head
							{
								OFFSET -0.000000 9.051071 1.034021
								CHANNELS 3 Zrotation Yrotation Xrotation
								End Site
								{
									OFFSET 0.000000 0.000000 0.000000
								}
							}
						}
					}
					JOINT LeftShoulder_virtual
					{
						OFFSET 0.000000 0.000000 0.000000
						CHANNELS 3 Zrotation Yrotation Xrotation
						JOINT LeftShoulder
						{
							OFFSET 6.197824 13.665230 -4.064723
							CHANNELS 3 Zrotation Yrotation Xrotation
							JOINT LeftArm
							{
								OFFSET 7.778132 -0.187073 -1.709282
								CHANNELS 3 Zrotation Yrotation Xrotation
								JOINT LeftForeArm
								{
									OFFSET 21.954697 0.000000 -2.041093
									CHANNELS 3 Zrotation Yrotation Xrotation
									JOINT LeftHand
									{
										OFFSET 22.992908 0.000000 -0.870901
										CHANNELS 3 Zrotation Yrotation Xrotation
										End Site
										{
											OFFSET 0.000000 0.000000 0.000000
										}
									}
								}
							}
						}
					}
					JOINT RightShoulder_virtual
					{
						OFFSET 0.000000 0.000000 0.000000
						CHANNELS 3 Zrotation Yrotation Xrotation
						JOINT RightShoulder
						{
							OFFSET -6.197824 13.665230 -4.064723
							CHANNELS 3 Zrotation Yrotation Xrotation
							JOINT RightArm
							{
								OFFSET -7.778132 -0.187073 -1.709282
								CHANNELS 3 Zrotation Yrotation Xrotation
								JOINT RightForeArm
								{
									OFFSET -21.954697 0.000000 -2.041093
									CHANNELS 3 Zrotation Yrotation Xrotation
									JOINT RightHand
									{
										OFFSET -22.992908 0.000000 -0.870901
										CHANNELS 3 Zrotation Yrotation Xrotation
										End Site
										{
											OFFSET 0.000000 0.000000 0.000000
										}
									}
								}
							}
						}
					}
				}
			}
		}
	}
}
MOTION
Frames: 9
Frame Time: 0.033333
-12.409587 81.263008 -45.359463 179.934927 -0.710146 -179.879493 -4.850116 -0.279794 11.762069 2.123990 3.848537 -24.195184 9.980896 4.565146 33.900240 -1.620549 -8.406759 -16.255693 0.000000 0.000000 0.000000 -1.837802 -1.117215 11.800582 -1.578790 -1.790348 -21.201319 -1.793785 3.313342 29.673613 10.736138 2.937510 -13.426117 0.000000 0.000000 0.000000 0.894707 2.033511 -0.495462 -4.455721 1.905841 -2.464963 -0.230534 -2.971058 5.143258 -0.000457 -0.008150 -0.004522 -0.097208 -2.079374 5.131088 -4.080755 3.020546 -0.325070 0.000000 0.000000 0.000000 1.589910 -1.293951 1.965405 1.728939 4.521048 -5.626734 2.429350 -16.085290 -54.342699 -0.721396 -28.647646 -3.607735 0.000000 0.000000 0.000000 -2.637264 -0.121499 1.327733 22.979963 -6.709586 -10.682801 -0.620613 1.256510 -66.651588 0.836960 21.665910 8.231212 0.000000 0.000000 0.000000 
-12.380420 81.286736 -45.326176 179.952317 -0.519522 -179.832310 -4.659679 -0.187937 11.649292 2.218155 3.396422 -23.984756 10.084240 4.399054 33.719186 -1.437339 -8.308427 -16.726793 0.000000 0.000000 0.000000 -2.018746 -1.237938 11.715016 -1.240470 -1.957732 -21.171821 -1.980544 2.889285 29.932963 10.914415 2.827914 -14.111182 0.000000 0.000000 0.000000 0.888011 2.070308 -0.520004 -4.506399 1.912232 -2.430957 -0.221165 -2.934962 5.126878 0.022894 0.016659 -0.013724 -0.136520 -2.123042 5.185085 -4.083521 2.932533 -0.318494 0.000000 0.000000 0.000000 1.544066 -1.360705 1.986390 1.786107 4.396752 -5.662281 2.351232 -16.034057 -54.338444 -0.735299 -28.912379 -3.614515 0.000000 0.000000 0.000000 -2.704395 -0.119645 1.316090 23.063179 -6.716230 -10.803779 -0.643657 1.248050 -66.744048 0.880493 21.788877 8.254765 0.000000 0.000000 0.000000 
-12.353887 81.300995 -45.300476 179.961947 -0.483116 -179.922578 -4.577392 -0.194125 11.754299 2.231693 3.250868 -23.925917 10.021744 4.530131 33.624871 -1.272681 -8.298455 -16.735529 0.000000 0.000000 0.000000 -2.014649 -1.341253 11.742667 -1.123184 -1.830140 -21.145560 -2.201115 2.846370 29.836069 11.168617 2.775759 -14.026447 0.000000 0.000000 0.000000 0.947589 1.979172 -0.493063 -4.613491 1.820386 -2.331739 -0.243195 -2.923563 5.163857 0.029202 -0.008936 0.016490 -0.173707 -2.099576 5.139658 -4.064058 2.863875 -0.232346 0.000000 0.000000 0.000000 1.520315 -1.252324 1.930189 1.852547 4.404633 -5.700332 2.221999 -16.040699 -54.439920 -0.705981 -29.192908 -3.684006 0.000000 0.000000 0.000000 -2.721336 -0.029038 1.282850 23.160258 -6.789733 -10.675242 -0.619449 1.457027 -67.053074 0.766799 21.817357 8.000949 0.000000 0.000000 0.000000 
-12.318752 81.312721 -45.253616 179.958860 -0.502850 -179.842678 -4.484619 -0.315919 11.667302 2.149748 3.392725 -23.821518 9.900161 4.523321 33.331798 -1.133591 -8.365193 -16.715544 0.000000 0.000000 0.000000 -1.933045 -1.304978 11.728965 -1.156454 -1.792461 -21.291622 -2.291281 2.748947 29.894065 11.319493 2.684363 -13.959245 0.000000 0.000000 0.000000 1.048223 1.974087 -0.519868 -4.761832 1.753746 -2.283571 -0.267256 -2.879454 5.207303 0.032751 0.002109 -0.010352 -0.223879 -2.117651 5.264323 -3.949894 2.781710 -0.029465 0.000000 0.000000 0.000000 1.492627 -1.333356 2.001219 1.904913 4.413376 -5.658372 1.824686 -15.932449 -54.406668 -0.618993 -29.499744 -3.796817 0.000000 0.000000 0.000000 -2.735905 -0.049130 1.427204 23.084359 -6.961482 -10.727220 -0.362346 1.756818 -67.116348 0.703092 21.626648 7.779935 0.000000 0.000000 0.000000 
-12.262059 81.314735 -45.156658 179.954475 -0.574502 -179.917551 -4.370996 -0.280489 11.838422 2.174318 3.224698 -23.906997 9.744423 4.608183 33.236991 -0.892719 -8.417141 -16.768036 0.000000 0.000000 0.000000 -1.893230 -1.339618 11.841060 -1.148960 -1.775900 -21.442991 -2.322649 2.692765 29.951537 11.497356 2.565822 -13.864202 0.000000 0.000000 0.000000 1.167553 1.960910 -0.421454 -4.913042 1.643473 -2.141569 -0.289309 -2.847566 5.316924 0.027047 -0.018544 0.015134 -0.211517 -2.042801 5.285382 -3.775744 2.654551 0.246814 0.000000 0.000000 0.000000 1.479194 -1.157219 2.065202 1.994021 4.293427 -5.721074 1.178035 -15.854862 -54.455995 -0.541459 -29.902490 -3.927040 0.000000 0.000000 0.000000 -2.760004 0.043796 1.438425 23.205284 -7.054772 -10.533144 -0.286944 1.920679 -67.418222 0.633262 21.220307 7.413907 0.000000 0.000000 0.000000 
-12.174756 81.303169 -44.989353 179.945104 -0.540677 -179.878837 -4.277736 -0.334888 11.826799 2.142530 3.308980 -24.003764 9.556550 4.625164 33.067142 -0.645889 -8.508991 -16.788467 0.000000 0.000000 0.000000 -1.804799 -1.296761 11.856069 -1.277962 -1.849764 -21.764483 -2.129227 2.733013 30.203588 11.556070 2.466786 -13.821409 0.000000 0.000000 0.000000 1.272506 2.015969 -0.327144 -5.064974 1.571884 -1.984357 -0.288647 -2.780676 5.486768 0.023186 -0.003844 -0.061856 -0.183566 -1.891506 5.479810 -3.486564 2.515762 0.616275 0.000000 0.000000 0.000000 1.482510 -1.131196 2.233096 2.038833 4.223285 -5.565161 0.177944 -15.749895 -54.373346 -0.303515 -30.404194 -4.239732 0.000000 0.000000 0.000000 -2.721707 0.045138 1.608593 23.117033 -7.217983 -10.437605 0.162435 2.159271 -67.453364 0.542461 20.705408 6.994039 0.000000 0.000000 0.000000 
-12.082686 81.285156 -44.738041 179.954147 -0.609578 -179.910174 -4.169867 -0.217033 11.976954 2.253029 3.089338 -24.367550 9.340289 4.647696 33.077909 -0.346819 -8.584436 -16.822508 0.000000 0.000000 0.000000 -1.718470 -1.284238 11.887559 -1.288784 -2.037912 -22.083822 -1.959409 2.726119 30.474129 11.675802 2.378160 -13.720504 0.000000 0.000000 0.000000 1.349994 2.066261 -0.117735 -5.187815 1.493329 -1.687420 -0.279086 -2.722501 5.648565 0.018587 0.006095 0.007025 -0.155986 -1.923773 5.549635 -3.197399 2.345431 0.975392 0.000000 0.000000 0.000000 1.476551 -1.101072 2.339540 2.146780 4.182075 -5.571505 -1.090152 -15.671280 -54.431751 -0.155448 -31.007823 -4.489143 0.000000 0.000000 0.000000 -2.730901 0.088834 1.629768 23.113668 -7.370292 -10.191823 0.676775 2.494859 -67.541569 0.415941 20.362054 6.439662 0.000000 0.000000 0.000000 
-11.997835 81.270065 -44.386574 179.982301 -0.529025 -179.923179 -4.090083 -0.051145 12.165810 2.390683 2.978254 -24.864361 9.084175 4.673323 33.145802 -0.045128 -8.658717 -16.782231 0.000000 0.000000 0.000000 -1.667551 -1.153584 11.808465 -1.211416 -2.188053 -22.508386 -1.869588 2.779724 30.815611 11.812915 2.235868 -13.635244 0.000000 0.000000 0.000000 1.370554 2.155930 0.121048 -5.311255 1.457369 -1.328356 -0.271341 -2.618317 5.863403 0.025870 0.057416 -0.014835 -0.158097 -1.934866 5.680753 -2.844024 2.136261 1.343307 0.000000 0.000000 0.000000 1.472705 -1.158516 2.534231 2.297457 4.124996 -5.612432 -2.589038 -15.610312 -54.491550 0.178766 -31.619630 -4.941635 0.000000 0.000000 0.000000 -2.731972 0.083519 1.711041 23.161127 -7.538813 -9.772259 1.337825 3.088771 -67.945636 0.225121 20.272872 5.771908 0.000000 0.000000 0.000000 
-11.912574 81.265022 -43.932228 179.917701 -0.410403 -179.933916 -4.083976 0.105821 11.835921 2.522473 2.838181 -24.894397 8.797342 4.686762 33.171043 0.267551 -8.649298 -16.677457 0.000000 0.000000 0.000000 -1.589886 -1.122814 11.669287 -1.281822 -2.486456 -23.006087 -1.763864 2.951564 31.253829 11.924508 2.234015 -13.545531 0.000000 0.000000 0.000000 1.292784 2.144406 0.368057 -5.435465 1.346417 -0.884539 -0.291533 -2.608299 6.102561 -0.005426 -0.012684 0.008179 -0.101636 -1.742772 5.851812 -2.554142 1.929279 1.691692 0.000000 0.000000 0.000000 1.515461 -0.938927 2.667259 2.416570 4.262709 -5.509410 -4.299450 -15.644067 -54.654808 0.473615 -32.090462 -5.385932 0.000000 0.000000 0.000000 -2.639087 0.248120 1.894926 23.019643 -7.490741 -9.569549 2.235431 3.899085 -68.159475 0.014173 20.436812 5.093691 0.000000 0.000000 0.000000 
